<?xml version="1.0" standalone="no"?>
<!DOCTYPE svg PUBLIC "-//W3C//DTD SVG 20010904//EN"
 "http://www.w3.org/TR/2001/REC-SVG-20010904/DTD/svg10.dtd">
<svg version="1.0" xmlns="http://www.w3.org/2000/svg"
 width="1120.000000pt" height="1120.000000pt" viewBox="0 0 1120.000000 1120.000000"
 preserveAspectRatio="xMidYMid meet">

<g transform="translate(0.000000,1120.000000) scale(0.100000,-0.100000)"
fill="#000000" stroke="none">
<path d="M0 5600 l0 -5600 5600 0 5600 0 0 5600 0 5600 -5600 0 -5600 0 0
-5600z m2820 2045 c151 -23 258 -40 773 -122 l177 -28 0 -211 0 -210 -30 -22
-30 -22 -6 25 c-5 19 -13 25 -33 26 -35 1 -130 23 -161 38 -22 10 -18 11 30 6
30 -3 84 -8 119 -12 58 -6 63 -5 59 13 -2 12 -16 21 -43 26 -43 9 -71 28 -42
28 9 0 17 4 17 8 0 5 -6 9 -12 9 -7 0 -31 3 -53 7 -39 6 -39 6 -15 -8 24 -14
24 -15 4 -16 -12 0 -36 3 -53 6 -29 6 -30 8 -14 20 16 12 14 14 -22 15 -59 3
-63 4 -71 11 -15 16 -20 -4 -13 -59 4 -32 8 -88 8 -125 1 -43 5 -68 14 -70 9
-4 13 -181 17 -824 l5 -819 85 -16 c47 -9 106 -20 133 -23 37 -6 47 -11 47
-26 0 -10 -6 -20 -12 -23 -9 -2 -13 -26 -13 -68 0 -157 -6 -249 -14 -249 -5 0
-23 19 -38 43 -26 37 -34 43 -78 49 -220 28 -488 62 -630 78 -93 11 -177 23
-187 26 -19 6 -21 25 -18 145 1 54 0 56 -46 98 -26 23 -44 44 -41 47 3 4 52
-5 109 -19 57 -14 121 -29 143 -32 57 -9 122 -34 128 -49 13 -32 -9 -39 -105
-33 -51 4 -103 9 -115 13 -22 6 -23 4 -23 -54 0 -34 4 -63 9 -66 5 -3 60 -12
122 -20 113 -15 497 -61 594 -72 28 -3 58 -8 68 -11 16 -4 18 1 15 48 l-3 53
-40 7 c-22 4 -76 12 -119 18 -44 6 -85 16 -93 22 -11 9 -13 191 -15 1018 -1
553 -3 988 -5 967 -4 -38 -25 -71 -37 -59 -3 4 -6 2 -6 -4 0 -6 -8 -9 -19 -6
-13 3 -17 11 -14 24 3 11 0 19 -6 19 -7 0 -9 5 -5 13 5 8 2 8 -9 -2 -14 -11
-17 -11 -18 0 0 10 -2 11 -6 2 -7 -18 -23 -16 -23 2 0 9 -6 12 -15 9 -8 -4
-15 -18 -15 -33 0 -20 -2 -23 -10 -11 -14 22 -12 60 4 60 19 0 40 26 26 35 -5
3 -10 1 -10 -5 0 -6 -4 -9 -9 -6 -5 4 -12 0 -14 -6 -3 -7 -6 7 -7 32 -1 25 -5
55 -8 68 -4 13 -7 -428 -7 -980 0 -552 -2 -1015 -4 -1030 -4 -31 -38 -48 -52
-27 -5 8 -8 448 -7 1011 2 548 1 998 -2 1001 -3 3 -74 17 -158 31 -84 14 -157
28 -163 31 -5 4 -9 50 -9 105 l0 98 -36 36 c-34 34 -64 47 -64 28 0 -12 -46
-32 -54 -25 -3 4 6 19 22 34 21 22 34 27 57 24 17 -3 104 -16 195 -30z m464
-554 c-5 -43 -14 -54 -14 -17 0 19 -6 29 -20 33 -29 8 -24 18 9 18 28 1 29 -1
25 -34z m945 -417 c108 -14 202 -31 209 -36 7 -6 12 -33 12 -64 0 -58 4 -62
38 -38 13 9 60 29 105 46 68 25 101 32 192 35 130 6 197 -5 300 -48 130 -54
226 -128 295 -230 42 -60 120 -226 120 -253 0 -10 3 -15 8 -13 9 6 10 -15 15
-253 2 -102 1 -259 -3 -350 -27 -633 -32 -745 -36 -749 -2 -3 -17 7 -32 21
-22 21 -41 27 -102 33 -41 4 -106 12 -145 19 l-70 11 -6 535 c-4 311 -11 560
-17 595 -6 33 -15 83 -20 111 -11 63 -88 184 -143 223 -86 63 -231 76 -326 30
-58 -28 -134 -105 -162 -163 -30 -65 -27 -85 6 -44 40 48 45 52 78 74 l30 19
-19 -30 c-10 -16 -29 -44 -41 -61 -38 -50 -75 -150 -85 -227 -5 -40 -10 -296
-10 -569 0 -436 -2 -498 -15 -498 -8 0 -15 -6 -15 -13 0 -12 -39 -42 -46 -34
-8 7 21 57 34 57 17 0 15 9 -10 47 -26 38 -29 39 -148 53 -61 7 -89 15 -98 27
-12 15 -13 157 -7 834 l7 816 -29 33 c-28 31 -32 32 -63 22 -42 -15 -50 -15
-50 0 0 11 39 58 48 58 2 0 93 -12 201 -26z m-222 -126 c-3 -8 -6 -5 -6 6 -1
11 2 17 5 13 3 -3 4 -12 1 -19z m6 -138 c3 -52 2 -135 -2 -185 -7 -80 -8 -70
-10 99 0 104 1 187 3 185 2 -2 6 -47 9 -99z m2647 -45 c154 -33 289 -105 396
-212 33 -34 69 -62 79 -64 10 -2 21 -11 23 -19 5 -13 3 -13 -13 0 -17 14 -17
14 -6 -5 40 -67 50 -80 61 -77 6 1 9 -2 5 -7 -3 -6 5 -32 18 -58 30 -59 62
-165 82 -269 23 -119 36 -372 25 -494 -9 -104 -45 -253 -77 -313 -31 -61 -97
-152 -137 -191 -43 -40 -124 -96 -139 -96 -5 0 33 40 83 90 79 78 97 102 136
183 55 117 56 132 4 45 -22 -36 -64 -88 -92 -114 -61 -54 -186 -117 -279 -139
-81 -19 -224 -19 -314 0 -224 48 -463 250 -553 469 -40 98 -70 210 -78 288 -6
56 -9 66 -14 43 -3 -16 -2 -48 2 -70 17 -92 0 -101 -22 -11 -16 67 -10 350 8
368 9 9 12 5 13 -17 1 -17 7 13 14 65 21 155 37 206 96 313 18 33 3 29 -23 -5
-41 -53 -90 -158 -109 -233 -28 -105 -42 -290 -37 -475 3 -91 3 -159 1 -152
-3 6 -9 10 -14 6 -5 -3 -8 -2 -7 3 1 4 -4 33 -12 63 -24 88 -19 332 9 448 48
206 116 337 241 462 120 121 223 172 380 189 80 9 165 4 250 -14z m996 -160
c330 -44 343 -48 345 -99 0 -21 1 -21 9 -1 7 17 9 18 9 2 1 -13 7 -16 26 -13
22 4 24 2 15 -15 -10 -17 -8 -18 17 -8 15 5 32 14 38 18 24 19 129 51 188 57
56 6 162 -5 220 -22 15 -5 17 -25 17 -231 l0 -226 -89 7 c-50 4 -102 12 -118
17 -21 7 -15 8 27 3 30 -3 72 -8 93 -11 48 -7 50 15 5 49 -31 23 -40 24 -163
23 -110 -2 -136 -5 -171 -23 -63 -32 -145 -136 -129 -163 6 -9 55 37 55 53 0
9 70 52 75 46 3 -2 -13 -28 -35 -57 -22 -29 -56 -86 -76 -127 l-37 -74 2 -492
c1 -271 4 -511 7 -533 5 -37 2 -43 -35 -79 -22 -22 -43 -37 -46 -34 -10 10 17
56 37 61 19 5 19 7 2 39 -22 43 -25 45 -103 53 -102 10 -191 26 -197 36 -11
18 -15 56 -14 147 0 51 -4 91 -9 88 -9 -6 -20 181 -22 354 -1 141 -17 188 -18
55 -1 -55 -4 -145 -8 -200 -7 -93 -8 -97 -16 -55 -19 104 -24 273 -23 768 1
498 0 522 -17 522 -14 0 -17 5 -12 21 5 16 35 59 40 59 1 0 50 -7 111 -15z
m-621 -5 c3 -5 1 -10 -4 -10 -6 0 -11 5 -11 10 0 6 2 10 4 10 3 0 8 -4 11 -10z
m-3028 -672 c-2 -29 -3 -6 -3 52 0 58 1 81 3 53 2 -29 2 -77 0 -105z m-1397
-122 c0 -3 -4 -8 -10 -11 -5 -3 -10 -1 -10 4 0 6 5 11 10 11 6 0 10 -2 10 -4z
m1408 -93 c-5 -82 -18 -63 -17 25 0 60 2 72 10 53 5 -14 8 -49 7 -78z m-7
-180 c-8 -14 -10 -7 -11 33 0 28 3 54 8 58 11 12 14 -72 3 -91z m18 -140 c0
-29 -2 -33 -8 -18 -7 18 -4 55 5 55 2 0 4 -17 3 -37z"/>
<path d="M2760 7477 l5 -62 50 -7 c69 -9 132 -9 120 0 -13 9 -17 32 -6 32 5 0
11 -5 13 -12 3 -7 20 -13 39 -14 19 -1 45 -4 59 -6 14 -3 19 -3 13 -1 -7 3
-13 9 -13 14 0 6 4 8 9 5 10 -6 25 24 16 32 -3 3 -5 0 -5 -6 0 -7 -7 -12 -15
-12 -8 0 -15 7 -15 15 0 9 -10 15 -22 16 -13 0 -18 3 -11 5 6 3 45 0 85 -6 40
-7 100 -13 133 -15 57 -4 58 -3 20 6 -22 5 -125 23 -230 39 -104 17 -203 32
-220 35 l-30 5 5 -63z m219 7 c2 -2 2 -6 0 -9 -8 -7 -49 7 -49 17 0 8 38 2 49
-8z"/>
<path d="M2963 7393 c9 -2 25 -2 35 0 9 3 1 5 -18 5 -19 0 -27 -2 -17 -5z"/>
<path d="M3060 7380 c0 -6 7 -10 15 -10 8 0 15 2 15 4 0 2 -7 6 -15 10 -8 3
-15 1 -15 -4z"/>
<path d="M3120 7371 c0 -11 4 -23 10 -26 6 -4 9 5 8 19 -3 30 -18 35 -18 7z"/>
<path d="M3610 7386 c0 -2 7 -6 15 -10 8 -3 15 -1 15 4 0 6 -7 10 -15 10 -8 0
-15 -2 -15 -4z"/>
<path d="M3125 7300 c-3 -5 -1 -10 4 -10 6 0 11 5 11 10 0 6 -2 10 -4 10 -3 0
-8 -4 -11 -10z"/>
<path d="M4293 5750 c0 -36 2 -50 4 -32 2 17 2 47 0 65 -2 17 -4 3 -4 -33z"/>
<path d="M4292 5570 c0 -19 2 -27 5 -17 2 9 2 25 0 35 -3 9 -5 1 -5 -18z"/>
<path d="M4293 5465 c0 -27 2 -38 4 -22 2 15 2 37 0 50 -2 12 -4 0 -4 -28z"/>
<path d="M4291 5354 c0 -11 3 -14 6 -6 3 7 2 16 -1 19 -3 4 -6 -2 -5 -13z"/>
<path d="M4168 5223 c-3 -71 -5 -155 -4 -188 l1 -60 65 -10 65 -11 6 56 c9 70
11 185 4 178 -3 -3 -7 -19 -10 -36 -2 -17 -6 -36 -10 -42 -10 -16 -25 -12 -19
5 5 11 2 13 -10 9 -11 -4 -16 -1 -16 10 0 28 -17 17 -18 -12 0 -15 -1 -32 -2
-37 -5 -25 2 -31 29 -27 25 3 30 1 28 -17 -1 -21 -17 -31 -17 -11 0 6 -12 10
-27 10 -21 0 -24 -3 -13 -9 8 -6 18 -7 22 -5 5 3 12 -5 17 -18 6 -13 10 -17
10 -10 1 7 6 10 11 7 19 -11 -1 -25 -35 -25 -65 0 -63 -6 -65 188 0 97 -2 177
-4 179 -2 2 -5 -54 -8 -124z"/>
<path d="M4291 5314 c0 -11 3 -14 6 -6 3 7 2 16 -1 19 -3 4 -6 -2 -5 -13z"/>
<path d="M5402 5013 c-1 -61 -7 -124 -12 -138 -10 -26 -11 -27 -73 -19 -34 4
-70 8 -79 8 -10 0 -18 3 -18 7 0 4 -9 5 -21 2 -41 -11 -1 -24 102 -32 57 -4
105 -7 107 -6 1 1 1 67 -1 146 -2 138 -3 139 -5 32z"/>
<path d="M4210 5000 c0 -5 7 -10 15 -10 8 0 15 5 15 10 0 6 -7 10 -15 10 -8 0
-15 -4 -15 -10z"/>
<path d="M6493 6050 c-101 -21 -176 -84 -225 -189 -33 -71 -32 -89 3 -39 29
42 76 88 89 88 15 0 12 -28 -3 -37 -25 -14 -66 -87 -93 -163 -35 -98 -44 -294
-20 -409 20 -97 73 -211 87 -191 9 12 10 10 6 -8 -8 -37 65 -109 150 -149 62
-28 82 -33 149 -33 122 0 181 37 242 150 40 76 53 157 55 358 1 118 5 161 10
135 5 -21 7 -119 4 -218 -3 -156 -7 -191 -29 -262 -14 -46 -22 -83 -19 -83 14
0 52 71 78 145 27 78 28 86 28 285 0 202 0 206 -30 285 -31 85 -55 136 -55
120 0 -5 -13 13 -30 41 -31 54 -92 106 -176 148 -55 28 -155 40 -221 26z m208
-86 c68 -19 161 -96 184 -152 17 -40 10 -56 -12 -27 -8 11 -19 19 -24 17 -6
-1 -9 3 -8 10 4 18 -11 58 -21 58 -5 0 -15 6 -22 13 -46 42 -111 73 -193 90
-13 3 -10 5 9 6 16 0 56 -6 87 -15z m223 -279 c4 -48 4 -52 -3 -20 -4 22 -12
54 -16 70 -5 22 -4 27 3 20 6 -6 13 -37 16 -70z m-20 0 c5 -22 4 -26 -4 -15
-5 8 -10 24 -10 34 0 26 6 18 14 -19z m-544 -605 c0 -5 -2 -10 -4 -10 -3 0 -8
5 -11 10 -3 6 -1 10 4 10 6 0 11 -4 11 -10z m46 -48 c-4 -3 -14 2 -24 12 -16
18 -16 18 6 6 13 -6 21 -14 18 -18z"/>
<path d="M6852 5966 c15 -14 33 -26 40 -26 14 1 -13 24 -47 42 -14 7 -12 2 7
-16z"/>
<path d="M7574 6088 c2 -46 5 -155 5 -242 1 -176 15 -201 25 -46 19 303 19
330 1 350 -31 34 -36 23 -31 -62z"/>
<path d="M7582 5510 c0 -14 2 -19 5 -12 2 6 2 18 0 25 -3 6 -5 1 -5 -13z"/>
<path d="M7583 5295 c0 -33 2 -45 4 -27 2 18 2 45 0 60 -2 15 -4 0 -4 -33z"/>
</g>
</svg>
